<svg width="240" height="64" viewBox="0 0 240 64" fill="none" xmlns="http://www.w3.org/2000/svg">
  <defs>
    <linearGradient id="g" x1="0" y1="0" x2="1" y2="1">
      <stop offset="0%" stop-color="#0EA5E9"/>
      <stop offset="100%" stop-color="#1D4ED8"/>
    </linearGradient>
  </defs>
  <rect x="8" y="8" width="48" height="48" rx="12" fill="url(#g)"/>
  <path d="M36 20C33 26 26 30 26 36C26 40 29 43 32 43C37 43 40 38 40 33" stroke="white" stroke-width="4" stroke-linecap="round"/>
  <path d="M200 20H187V46H200C209 46 215 41 215 33C215 25 209 20 200 20ZM200 38.8H195.1V27.2H200C205.1 27.2 207.9 29.8 207.9 33C207.9 36.2 205.1 38.8 200 38.8Z" fill="#1F2937"/>
  <path d="M75 20H66V46H75V34.7L84.6 46H95V20H86V31.1L75 20Z" fill="#1F2937"/>
  <path d="M141 33C141 41 134.5 46 126 46C117.5 46 111 41 111 33C111 25 117.5 20 126 20C134.5 20 141 25 141 33ZM129 33C129 30.5 127.6 28.5 126 28.5C124.4 28.5 123 30.5 123 33C123 35.5 124.4 37.5 126 37.5C127.6 37.5 129 35.5 129 33Z" fill="#1F2937"/>
  <path d="M155 46C149 46 145 43.1 145 38.6C145 31.3 154.9 32.7 154.9 30.4C154.9 29.6 154.2 29.1 152.9 29.1C151.1 29.1 148.9 29.8 146.8 31L144.1 24.9C146.8 23.2 150.7 22 155.2 22C161.1 22 165 24.9 165 29.5C165 37 155.1 35.2 155.1 37.8C155.1 38.5 155.8 39.1 157.3 39.1C159.2 39.1 161.7 38.3 163.5 37.2L165.9 43.2C163.4 45.1 159.6 46 155 46Z" fill="#1F2937"/>
  <path d="M173 20V46H182.2L193 33V46H202V20H192.8L182 33.1V20H173Z" fill="#1F2937"/>
  <path d="M95.4 33C95.4 25 101.9 20 110.4 20C114 20 117.5 21 120.2 23.2L116.3 29.1C114.9 28.1 112.9 27.4 111.1 27.4C108 27.4 105.9 29.2 105.9 33C105.9 36.8 108 38.6 111.1 38.6C112.9 38.6 114.9 37.9 116.3 36.9L120.2 42.8C117.5 45 114 46 110.4 46C101.9 46 95.4 41 95.4 33Z" fill="#1F2937"/>
</svg>
